<?xml version="1.0" encoding="utf-8"?>
<!-- Generator: Adobe Illustrator 13.0.0, SVG Export Plug-In . SVG Version: 6.00 Build 14948)  -->
<!DOCTYPE svg PUBLIC "-//W3C//DTD SVG 1.1//EN" "http://www.w3.org/Graphics/SVG/1.1/DTD/svg11.dtd">
<svg version="1.1" id="Layer_1" xmlns="http://www.w3.org/2000/svg" xmlns:xlink="http://www.w3.org/1999/xlink" x="0px" y="0px"
	 width="241.839px" height="50.047px" viewBox="0 0 241.839 50.047" enable-background="new 0 0 241.839 50.047"
	 xml:space="preserve">
<g>
	<path fill="#FFFFFF" d="M70.995,21.187c0.952,0,1.987,0.501,3.104,1.504l2.38-2.38c-1.713-1.714-3.587-2.571-5.618-2.571
		c-1.84,0-3.357,0.533-4.551,1.6c-1.193,1.066-1.79,2.412-1.79,4.037c0,1.079,0.261,1.993,0.781,2.742
		c0.521,0.711,1.454,1.44,2.799,2.189c0.762,0.406,1.365,0.755,1.81,1.047c0.443,0.292,0.755,0.521,0.933,0.687
		c0.368,0.33,0.551,0.762,0.551,1.295c0,0.608-0.218,1.104-0.656,1.484c-0.437,0.382-1.019,0.572-1.742,0.572
		c-1.283,0-2.488-0.68-3.619-2.038l-2.761,1.923c1.727,2.374,3.903,3.562,6.532,3.562c1.93,0,3.497-0.507,4.703-1.523
		c1.181-1.027,1.772-2.393,1.772-4.094c0-1.181-0.293-2.14-0.877-2.876c-0.545-0.749-1.625-1.574-3.236-2.475
		c-1.131-0.623-1.873-1.118-2.229-1.486c-0.355-0.355-0.533-0.793-0.533-1.314c0-0.533,0.213-0.981,0.639-1.342
		C69.81,21.368,70.348,21.187,70.995,21.187"/>
	<path fill="#FFFFFF" d="M95.037,20.691c-0.952-1.028-1.885-1.752-2.799-2.171c-0.902-0.419-1.994-0.628-3.275-0.628
		c-2.717,0-4.945,0.946-6.685,2.837c-1.713,1.892-2.571,4.317-2.571,7.275c0,2.563,0.75,4.651,2.248,6.265
		c1.498,1.612,3.434,2.418,5.808,2.418c1.93,0,3.796-0.787,5.598-2.361l-0.248,1.942h4.209l2.209-17.938h-4.209L95.037,20.691z
		 M92.714,31.317c-1.13,1.257-2.47,1.885-4.019,1.885c-1.396,0-2.539-0.501-3.427-1.504c-0.889-1.003-1.332-2.292-1.332-3.865
		c0-1.804,0.533-3.327,1.599-4.57c1.067-1.232,2.387-1.847,3.961-1.847c1.447,0,2.627,0.501,3.541,1.504
		c0.914,0.99,1.371,2.279,1.371,3.866C94.408,28.524,93.844,30.035,92.714,31.317"/>
	<path fill="#FFFFFF" d="M113.992,17.892c-1.701,0-3.383,0.698-5.047,2.095l0.192-1.657h-4.19l-2.209,17.938h4.208l1.067-8.646
		c0.088-0.724,0.19-1.36,0.304-1.914c0.114-0.552,0.254-1.019,0.419-1.4c0.305-0.749,0.775-1.383,1.409-1.904
		c0.775-0.66,1.701-0.99,2.781-0.99c1.752,0,2.628,0.812,2.628,2.437c0,0.242-0.009,0.515-0.029,0.819
		c-0.019,0.305-0.054,0.654-0.105,1.048l-1.295,10.549h4.189l1.2-9.636c0.153-1.27,0.229-2.361,0.229-3.275
		c0-1.688-0.515-3.021-1.542-3.999C117.146,18.381,115.744,17.892,113.992,17.892"/>
	<path fill="#FFFFFF" d="M139.928,21.053c-1.053-1.155-2.063-1.974-3.027-2.457c-0.927-0.469-2.068-0.704-3.429-0.704
		c-2.651,0-4.854,0.933-6.606,2.799c-1.752,1.866-2.628,4.209-2.628,7.027c0,2.641,0.8,4.799,2.398,6.475
		c1.601,1.663,3.657,2.494,6.17,2.494c1.105,0,2.031-0.152,2.78-0.457c0.762-0.33,1.664-0.958,2.705-1.885l-0.229,1.923h4.189
		l3.961-32.163h-4.209L139.928,21.053z M137.604,31.241c-1.104,1.295-2.457,1.942-4.057,1.942c-1.535,0-2.767-0.477-3.693-1.428
		c-0.928-0.966-1.391-2.241-1.391-3.827c0-1.879,0.539-3.435,1.62-4.666c1.078-1.231,2.443-1.847,4.093-1.847
		c1.524,0,2.755,0.47,3.695,1.409c0.938,0.939,1.409,2.171,1.409,3.694C139.281,28.397,138.722,29.972,137.604,31.241"/>
	<path fill="#FFFFFF" d="M159.945,17.893c-2.007,0-3.917,0.774-5.732,2.323l0.229-1.885h-4.209l-3.467,28.202h4.208l1.581-12.835
		c1.029,1.131,1.999,1.911,2.913,2.344c0.877,0.431,2,0.646,3.371,0.646c2.679,0,4.92-0.958,6.723-2.875
		c1.814-1.93,2.724-4.304,2.724-7.123c0-2.539-0.793-4.64-2.381-6.303C164.319,18.724,162.332,17.893,159.945,17.893
		 M162.439,31.355c-1.092,1.219-2.438,1.828-4.036,1.828c-1.524,0-2.769-0.495-3.733-1.485c-0.964-0.965-1.447-2.24-1.447-3.827
		c0-1.815,0.571-3.345,1.713-4.589c1.144-1.244,2.565-1.866,4.267-1.866c1.422,0,2.59,0.514,3.504,1.542
		c0.914,1.016,1.371,2.317,1.371,3.904C164.077,28.613,163.532,30.111,162.439,31.355"/>
	<path fill="#FFFFFF" d="M177.312,7.457c-0.608,0-1.136,0.222-1.581,0.667c-0.432,0.431-0.646,0.958-0.646,1.58
		s0.222,1.174,0.666,1.657c0.458,0.457,0.997,0.685,1.62,0.685c0.621,0,1.154-0.222,1.599-0.666
		c0.444-0.444,0.666-0.971,0.666-1.581c0-0.634-0.233-1.18-0.705-1.637C178.473,7.692,177.934,7.457,177.312,7.457"/>
	<polygon fill="#FFFFFF" points="171.903,36.269 176.111,36.269 178.32,18.331 174.112,18.331 	"/>
	<path fill="#FFFFFF" d="M193.899,17.893c-2.007,0-3.917,0.774-5.733,2.323l0.229-1.885h-4.209l-3.466,28.202h4.208l1.581-12.835
		c1.028,1.131,1.999,1.911,2.913,2.344c0.876,0.431,1.999,0.646,3.37,0.646c2.68,0,4.92-0.958,6.723-2.875
		c1.815-1.93,2.724-4.304,2.724-7.123c0-2.539-0.793-4.64-2.38-6.303S196.286,17.893,193.899,17.893 M196.393,31.355
		c-1.092,1.219-2.438,1.828-4.036,1.828c-1.524,0-2.769-0.495-3.733-1.485c-0.964-0.965-1.447-2.24-1.447-3.827
		c0-1.815,0.571-3.345,1.714-4.589c1.144-1.244,2.565-1.866,4.267-1.866c1.422,0,2.59,0.514,3.504,1.542
		c0.914,1.016,1.371,2.317,1.371,3.904C198.031,28.613,197.485,30.111,196.393,31.355"/>
	<path fill="#FFFFFF" d="M237.901,17.854c-1.446,0-2.883,0.673-4.303,2.019l0.19-1.543h-4.209l-2.209,17.939h4.209l1.104-8.951
		c0.113-0.99,0.271-1.84,0.465-2.551c0.197-0.711,0.445-1.292,0.744-1.743c0.297-0.45,0.651-0.781,1.058-0.99
		c0.405-0.21,0.875-0.314,1.407-0.314c0.775,0,1.55,0.33,2.324,0.99l2.687-3.466C240.326,18.317,239.172,17.854,237.901,17.854"/>
	<path fill="#FFFFFF" d="M25.326,0.956c-12.765,0-23.262,9.864-24.287,22.369c0.73-0.245,1.472-0.456,2.229-0.605
		c3.481-0.681,7.19-0.283,10.54,0.837c0.207,0.069,0.408,0.161,0.613,0.237c-0.498-1.958-0.792-4.038-0.408-5.984
		c0.965-4.876,6.625-8.221,11.35-6.719c2.53,0.804,4.728,2.675,5.687,5.161c0.523,1.356,0.817,2.831,0.963,4.289
		c4.48,1.028,8.959,2.057,13.44,3.085c1.019,0.234,0.695,1.644-0.232,1.716c-2.56,0.198-5.118,0.441-7.667,0.73
		c-1.786,0.203-3.575,0.421-5.339,0.763c-1.936,0.375-3.769,1.023-4.754,2.867c-0.789,1.477-1.026,3.645-1.493,5.34
		c-0.76,2.755-1.751,5.482-3.222,7.943c-1.253,2.097-2.912,4.095-4.931,5.536c2.367,0.769,4.891,1.188,7.511,1.188
		c13.441,0,24.377-10.936,24.377-24.376C49.703,11.892,38.767,0.956,25.326,0.956"/>
	<path fill="#FFFFFF" d="M24.428,20.29c1.057,0,1.913-0.857,1.913-1.914c0-1.056-0.856-1.913-1.913-1.913s-1.913,0.857-1.913,1.913
		C22.515,19.433,23.371,20.29,24.428,20.29"/>
	<path fill="#FFFFFF" d="M210.181,28.805c0,1.319,0.457,2.404,1.371,3.256c0.927,0.851,2.106,1.275,3.542,1.275
		c1.968,0,3.478-0.735,4.531-2.209l3.144,1.733c-1.092,1.472-2.216,2.501-3.371,3.085c-1.168,0.596-2.628,0.895-4.38,0.895
		c-2.781,0-4.996-0.818-6.646-2.457c-1.649-1.637-2.476-3.826-2.476-6.569c0-2.869,0.908-5.268,2.723-7.198
		c1.804-1.917,4.081-2.875,6.837-2.875c2.666,0,4.768,0.863,6.304,2.59c1.561,1.739,2.342,4.068,2.342,6.988
		c0,0.305-0.02,0.8-0.058,1.486H210.181z M219.834,25.414c-0.442-2.768-1.974-4.151-4.589-4.151c-2.475,0-4.088,1.383-4.837,4.151
		H219.834z"/>
</g>
</svg>
